<?xml version="1.0" encoding="UTF-8"?>
<svg width="530px" height="380px" viewBox="0 0 530 380" version="1.1" xmlns="http://www.w3.org/2000/svg" xmlns:xlink="http://www.w3.org/1999/xlink">
    <title>B125084E-D387-43B2-8D8E-AA61A6308A2E</title>
    <defs>
        <polygon id="path-1" points="0.318747669 0.396144627 37.5971103 0.396144627 37.5971103 14.5589608 0.318747669 14.5589608"></polygon>
        <polygon id="path-3" points="0 0.16850823 79.4849671 0.16850823 79.4849671 66.4520297 0 66.4520297"></polygon>
    </defs>
    <g id="About" stroke="none" stroke-width="1" fill="none" fill-rule="evenodd">
        <g id="About-Careers" transform="translate(-740.000000, -285.000000)">
            <g id="Header" transform="translate(170.000000, 147.000000)">
                <g id="Group-171" transform="translate(570.000000, 138.000000)">
                    <rect id="Rectangle" x="0" y="0" width="530" height="380"></rect>
                    <polygon id="Fill-1" fill="#F7E2D3" points="296.460144 364.64071 298.727916 360.158309 312.23955 360.646948 312.542891 364.64071 306.194351 375.654597 294.767074 366.843582"></polygon>
                    <g id="Group-170" transform="translate(37.000000, 0.004233)">
                        <path d="M269.868129,360.102792 L270.43942,370.494133 C270.43942,370.494133 273.978105,368.505191 278.114157,364.832576 L277.54571,358.949817 L269.868129,360.102792 Z" id="Fill-2" fill="#EEC6AE"></path>
                        <path d="M260.736149,363.976328 C260.736149,363.976328 264.736608,363.89991 269.392748,367.398288 C272.163865,369.480689 276.352068,365.185326 277.634509,364.075087 C277.895265,363.849189 278.249892,364.052075 278.294457,364.453151 L279.904502,378.978297 L239.372238,378.978297 C238.900982,378.978297 238.519332,378.48611 238.519332,377.878391 L238.519332,374.821949 C238.519332,374.348078 238.754485,373.927747 239.102475,373.7784 L260.736149,363.976328 Z" id="Fill-4" fill="#162B48"></path>
                        <polygon id="Fill-6" fill="#F7E2D3" points="327.596772 364.130083 329.883358 359.653907 342.383014 357.796465 343.809582 364.130083 337.409701 375.128673 325.89001 366.329895"></polygon>
                        <path d="M337.264437,359.81476 L336.129915,369.629378 C336.129915,369.629378 339.6686,367.639966 343.804652,363.967821 L342.667285,358.949676 L337.264437,359.81476 Z" id="Fill-8" fill="#EEC6AE"></path>
                        <path d="M326.774539,363.976328 C326.774539,363.976328 330.774998,363.89991 335.431612,367.398288 C338.202729,369.480689 342.390458,365.185326 343.673373,364.075087 C343.934129,363.849189 344.288756,364.052075 344.333321,364.453151 L345.943366,378.978297 L305.410628,378.978297 C304.939372,378.978297 304.557722,378.48611 304.557722,377.878391 L304.557722,374.821949 C304.557722,374.348078 304.792875,373.927747 305.140865,373.7784 L326.774539,363.976328 Z" id="Fill-10" fill="#162B48"></path>
                        <path d="M302.945875,54.7874829 L301.905699,55.342602 C302.642925,54.6005646 303.446525,54.2394085 304.002171,54.0661099 L302.945875,54.7874829 Z M280.855168,39.6889012 C281.411288,40.4473761 282.170797,41.2753583 283.010428,41.6064573 C284.901141,42.3513125 287.317156,40.7916251 289.430222,39.1675965 C291.509152,37.569868 295.474053,40.1726345 296.091332,40.5971925 L300.867893,55.8963121 L300.49525,56.0949715 L300.635584,56.3654864 L300.776392,56.6369405 L305.569073,54.0792599 L305.606052,53.9580918 C309.128618,42.4818735 308.905791,39.9049374 307.227002,34.9008817 C302.786103,27.7806106 288.737087,23.9628754 287.676524,23.0916859 C285.387094,21.2117014 282.056538,20.8571203 279.492129,22.3989612 C274.570019,25.3595963 275.495937,31.9998914 278.310671,36.4427226 C278.8355,37.7957667 279.653324,38.9614229 280.855168,39.6889012 L280.855168,39.6889012 Z" id="Fill-12" fill="#162B48"></path>
                        <path d="M264.089082,188.322318 C264.089082,188.322318 258.875874,250.088944 258.386603,267.154395 C257.896383,284.219845 261.353997,360.301217 261.353997,360.301217 L278.800891,360.681628 C278.800891,360.681628 298.186856,233.046037 319.248291,191.887385 L264.089082,188.322318 Z" id="Fill-14" fill="#0091DA"></path>
                        <path d="M267.746719,188.405774 C267.746719,188.405774 276.097523,239.809707 288.339743,276.236697 C298.231848,305.672098 324.204015,361.660695 324.204015,361.660695 L344.459005,361.441841 L323.340678,277.111174 C322.216586,272.717655 321.507332,268.22786 321.219553,263.695326 C320.133389,246.590896 323.682504,212.026983 325.166912,189.879517 L267.746719,188.405774 Z" id="Fill-16" fill="#33A7E1"></path>
                        <path d="M293.186566,91.1436032 C293.186566,91.1436032 293.876856,85.6013356 288.704421,84.7954266 C283.531512,83.9899873 269.587746,80.3281739 234.137838,92.3191219 C234.137838,92.3191219 227.996816,58.3173734 227.936605,55.5671387 C227.780626,48.4092961 225.490247,39.1173916 219.898233,34.2096129 C219.439778,33.8080673 219.107434,51.9616825 218.905941,61.6485575 C218.905941,61.6485575 214.186746,110.423424 219.942325,115.326037 C225.697903,120.229119 298.91038,107.854472 293.186566,91.1436032" id="Fill-18" fill="#F7E2D3"></path>
                        <path d="M248.401195,87.3075988 C248.401195,87.3075988 302.08453,74.0035265 301.502334,89.4585678 C300.920139,104.914079 222.762795,133.875139 216.224477,125.244024 C205.844523,111.542163 217.211554,64.6242682 217.211554,64.6242682 L230.042132,58.9533182 L233.793215,90.8275798 L248.401195,87.3075988 Z" id="Fill-20" fill="#464E7E"></path>
                        <path d="M252.122694,117.807823 C255.233741,121.50439 285.674778,113.744464 289.012444,108.708942 C289.012444,108.708942 289.532058,91.8304104 288.235868,91.4819346 C275.02032,87.933775 252.122694,117.807823 252.122694,117.807823" id="Fill-22" fill="#162B48"></path>
                        <path d="M311.166728,80.9605024 C311.166728,80.9605024 338.395261,83.7149639 340.109134,106.051228 C341.823481,128.387022 327.756923,198.183619 327.756923,198.183619 L259.455652,199.35679 L263.265997,111.331434 C263.542397,105.637002 265.31411,100.122913 268.396711,95.3541486 C271.243684,90.9507674 274.577083,85.9589224 276.47064,85.7250398 L305.055574,78.1168086 L311.166728,80.9605024 Z" id="Fill-24" fill="#464E7E"></path>
                        <path d="M316.789701,89.367316 C333.333434,82.7941801 339.252103,94.8832836 340.109276,106.050946 C341.823623,128.38721 327.362614,197.792124 327.362614,197.792124 L259.850246,199.747251" id="Fill-26" fill="#162B48"></path>
                        <path d="M302.594946,60.7575491 L305.450453,78.1169965 L288.390899,88.9911313 L286.064488,82.2151091 L287.288615,69.6671635 L300.023426,58.2477722 C300.023426,58.2477722 301.982882,59.6285252 302.227992,60.1301049 C302.472628,60.6321542 302.594946,60.7575491 302.594946,60.7575491" id="Fill-28" fill="#F7E2D3"></path>
                        <path d="M300.02352,58.247913 L287.28871,69.6668347 L286.389342,77.1318245 C286.389342,77.1318245 297.949805,73.9781657 298.351368,64.5134323" id="Fill-30" fill="#EEC6AE"></path>
                        <path d="M267.580974,158.05917 L252.403124,110.879214 C251.56207,108.264237 249.653816,106.152248 247.174745,105.091322 L216.096517,91.7938252 C215.176288,91.4002636 214.233303,92.3033888 214.553795,93.2708552 L229.889994,139.493677 C230.715402,141.981381 232.509872,144.006955 234.846713,145.088545 L266.005064,159.512248 C266.923396,159.937276 267.896725,159.040256 267.580974,158.05917" id="Fill-32" fill="#0091DA"></path>
                        <path d="M264.971999,160.821991 L249.793676,113.641565 C248.952622,111.026588 247.044842,108.915069 244.565297,107.854144 L213.487069,94.5566463 C212.567314,94.162615 211.623854,95.0662099 211.94482,96.0336763 L227.280545,142.256498 C228.105954,144.744202 229.900424,146.769776 232.237739,147.851836 L263.395616,162.275069 C264.313948,162.700097 265.287276,161.803077 264.971999,160.821991" id="Fill-34" fill="#33A7E1"></path>
                        <path d="M245.630648,134.592098 C247.309911,136.086974 282.354463,174.32632 300.318126,179.019941 C305.555039,180.388013 309.424646,175.884598 312.162102,171.197552 L330.224852,136.493686 L306.15525,117.994413 C305.984574,118.256944 293.406691,139.435535 290.509938,150.059819 C289.556996,153.55397 287.906653,153.286273 285.044509,151.55 L263.081334,138.138379 C263.081334,138.138379 263.11784,134.334733 262.629517,132.896683 C261.701228,130.161477 257.29731,126.49121 257.29731,126.49121 L259.20509,132.292252 C259.548338,133.27005 260.673853,133.975925 258.898821,134.186795 L244.951262,123.94668 C244.951262,123.94668 243.680199,123.845236 244.884414,125.202038 C246.089103,126.559309 247.394301,127.983738 247.22647,128.085651 C247.059586,128.187094 243.245449,125.54159 243.077617,126.559309 C242.910734,127.576557 246.189612,130.019175 246.055442,130.120618 C245.921745,130.222531 242.341813,127.305103 242.141269,128.255193 C241.94025,129.204813 244.650682,131.036893 244.784379,131.41026 C244.918075,131.783627 241.839741,129.442452 241.706045,129.951077 C241.571874,130.460171 244.670594,133.738285 245.630648,134.592098" id="Fill-36" fill="#F7E2D3"></path>
                        <path d="M312.527444,99.2463693 C312.527444,99.2463693 319.384832,80.1731914 332.609388,88.2036324 C345.833944,96.2350127 333.983805,133.93098 328.690948,143.416378 C324.331595,151.228904 319.114594,166.681597 311.964687,176.868643 C306.971936,183.983278 292.715737,183.081092 286.389816,177.09736 L258.863548,151.056075 L265.377687,138.736846 L288.276735,148.513893 L312.527444,99.2463693 Z" id="Fill-38" fill="#464E7E"></path>
                        <path d="M301.260591,54.0169851 C301.413725,54.418061 301.913901,54.535472 302.218747,54.2391267 C303.255605,53.2308012 305.319838,51.8486392 306.060383,55.8636249 C307.06595,61.3157209 301.322698,60.377842 300.864717,61.1114258 C299.936428,62.600197 296.959552,67.6009652 292.521498,69.542473 C289.816756,70.7250364 285.811081,70.9128939 282.857436,68.1030145 C279.903317,65.2936047 278.581525,67.2172661 279.820823,37.1807211 C279.820823,37.1807211 281.173906,39.76705 283.119614,40.4339443 C285.065796,41.1008387 288.183954,38.4276256 290.399899,37.8147403 C292.199584,37.3173874 295.688015,36.0103685 297.820044,42.2115465 C298.80001,45.060876 300.358378,51.653737 301.260591,54.0169851" id="Fill-40" fill="#F7E2D3"></path>
                        <polygon id="Fill-42" fill="#FFFFFF" points="304.463565 72.8371189 287.88143 85.156348 288.276356 98.6496868 309.793402 79.4858676"></polygon>
                        <polygon id="Fill-44" fill="#FFFFFF" points="285.907466 75.9659805 287.684394 85.7434968 284.525938 96.3029701 280.578104 83.9832714"></polygon>
                        <path d="M198.56694,99.4160517 C201.83444,86.8591828 205.626769,72.0790197 205.827313,61.7881827 C205.997515,53.0607901 207.100273,39.7257213 206.24784,37.2568034 C206.004627,36.5513982 198.623832,42.9366767 197.661883,48.0191629 C196.845956,52.3272064 197.005728,59.1229536 197.005728,59.1229536 C197.005728,59.1229536 187.227407,83.6609079 183.254446,90.897181 C180.633145,95.6720505 176.098849,100.775201 168.373858,103.988974 C160.648866,107.203687 169.462392,104.599042 169.462392,104.599042 L178.744329,120.04516 C178.744329,120.04516 194.502003,115.038756 198.56694,99.4160517" id="Fill-46" fill="#F7E2D3"></path>
                        <path d="M199.064651,96.6876085 C196.101523,117.62856 176.178403,121.728551 176.178403,121.728551 L173.806005,116.766764 C173.806005,116.766764 183.843184,116.563408 199.064651,96.6876085" id="Fill-48" fill="#FF9385"></path>
                        <path d="M158.039228,104.879795 C158.039228,104.879795 171.151896,104.474023 178.937573,94.3259572 C186.723723,84.1778919 193.074772,65.302434 193.074772,65.302434 L207.00716,69.9706944 C207.00716,69.9706944 205.162909,128.220157 163.571505,127.205726 L158.039228,104.879795 Z" id="Fill-50" fill="#99D3F0"></path>
                        <path d="M138.513593,105.308627 L161.386092,71.6670951 C162.55712,70.0036164 161.839332,63.8428278 160.857944,62.0365773 C158.170743,57.0907574 153.569599,53.1861381 148.339324,51.8847549 C125.361101,46.168719 36.1984647,72.0705192 36.1984647,72.0705192 C36.1984647,72.0705192 51.715296,141.238263 122.891512,137.401742" id="Fill-52" fill="#162B48"></path>
                        <path d="M140.175268,69.5542141 C140.053424,69.7974897 139.771334,69.8857827 139.549455,69.7467681 C138.621167,69.1672276 136.256828,68.0607466 134.551015,70.4850483 C132.826238,72.9356502 135.998918,75.5257363 137.365749,76.4805223 C137.7602,76.7562033 138.032808,77.1859275 138.135688,77.6790536 C138.452387,79.1936551 139.068243,84.819989 139.356022,89.7620517 C139.606821,94.0672773 136.251613,103.433386 136.251613,103.433386 C136.251613,103.433386 151.846197,109.506351 153.586619,104.227553 C153.586619,104.227553 149.823685,89.996404 151.118927,86.5543839 C151.147847,86.4792409 157.785252,88.0774391 161.159425,76.7101782 C164.339216,65.9976009 156.683443,62.282248 154.893714,61.5867054 C153.38323,60.9996506 146.210566,57.4979857 140.175268,69.5542141" id="Fill-54" fill="#F7E2D3"></path>
                        <path d="M160.299075,62.5563322 C160.299075,62.5563322 148.608233,76.2675858 139.541064,69.4136028 C139.541064,69.4136028 145.836169,53.1507739 160.299075,62.5563322" id="Fill-56" fill="#162B48"></path>
                        <path d="M160.299075,62.5563322 C160.299075,62.5563322 148.608233,76.2675858 139.541064,69.4136028 C139.541064,69.4136028 145.836169,53.1507739 160.299075,62.5563322 Z" id="Stroke-58" stroke="#162B48" stroke-width="1.233"></path>
                        <path d="M151.377738,86.5930356 C151.377738,86.5930356 150.345148,86.5822338 148.074681,86.047779 C147.538473,85.9214448 146.535277,85.5753173 145.612678,85.0859483 C145.091641,84.8097977 144.553537,85.4250312 144.901527,85.8984323 C144.901527,85.8984323 150.12801,94.0890218 151.10276,92.318934 C151.843305,90.9738739 150.380705,87.7699632 151.377738,86.5930356" id="Fill-60" fill="#EEC6AE"></path>
                        <path d="M139.545141,349.147832 L134.423909,367.671057 C134.423909,367.671057 137.497976,378.785649 140.35206,374.483241 C143.206618,370.180834 146.031782,367.906818 146.031782,367.906818 L152.045746,348.928508 L139.545141,349.147832 Z" id="Fill-62" fill="#F7E2D3"></path>
                        <g id="Group-66" transform="translate(127.533002, 364.443664)">
                            <mask id="mask-2" fill="white">
                                <use xlink:href="#path-1"></use>
                            </mask>
                            <g id="Clip-65"></g>
                            <path d="M19.8505354,3.38214052 L37.1936014,13.1850176 C37.9701778,13.623665 37.5510731,14.5399402 36.5725299,14.5347741 C28.5645004,14.4915669 6.98961447,14.6066297 1.31700344,14.5347741 C0.628609692,14.5263205 0.154509313,13.6959901 0.372121387,13.2141355 C1.57206945,10.5503153 5.65454781,0.467060855 6.11916618,0.396144627 C6.11916618,0.396144627 10.1689316,6.88850186 12.5313738,6.23428791 C14.5652644,5.67165452 17.6037738,3.99361688 18.2163114,3.42440847 C18.6306752,3.03977012 19.3953991,3.02615045 19.8505354,3.38214052" id="Fill-64" fill="#162B48" mask="url(#mask-2)"></path>
                        </g>
                        <path d="M65.5989463,337.804805 L58.5424363,355.024298 C58.5424363,355.024298 56.245894,366.321582 60.7479512,363.748873 C65.2495343,361.176163 68.8048131,360.40219 68.8048131,360.40219 L78.7305786,344.104138 L65.5989463,337.804805 Z" id="Fill-67" fill="#F7E2D3"></path>
                        <path d="M70.0491843,360.931573 L81.094775,377.409499 C81.5897358,378.147309 80.7994104,378.77898 79.928488,378.338924 C72.7937514,374.735816 53.620658,364.933878 48.5852379,362.344262 C47.9741225,362.03007 47.7759486,361.376795 48.1884159,361.042409 C50.4688387,359.198117 58.6902134,352.0074 59.13729,352.151111 C59.13729,352.151111 59.8095644,359.753706 62.216572,360.221002 C64.2893388,360.623956 67.7649687,360.477427 68.5704653,360.241666 C69.1147325,360.082457 69.8040745,360.411207 70.0491843,360.931573" id="Fill-69" fill="#162B48"></path>
                        <path d="M121.432563,155.755426 C116.183797,166.797224 114.078792,170.854007 110.798965,184.23745 C106.994784,199.758711 102.714132,232.666659 98.8834005,250.436575 C94.1196399,272.537077 72.4039461,323.165159 60.5130345,344.373808 C61.3977058,345.688341 67.4661907,350.205376 73.2160801,353.710328 C91.276934,331.652563 118.949225,285.983921 128.125438,258.712639 C134.914555,238.539086 135.958524,226.642067 138.283512,214.97893 C138.762354,212.577641 142.046447,212.482773 142.262163,214.920694 C143.10132,224.40938 142.106184,236.905664 140.828957,262.37774 C139.362091,291.612134 132.376222,340.468249 133.452904,358.987247 C136.5246,358.987247 145.830716,359.393019 150.253599,359.393019 C156.88247,327.303191 171.007817,268.883248 171.971663,259.130153 C175.726064,221.135962 181.417639,193.715333 158.073885,156.808367 C143.954227,157.142284 133.058926,155.979446 121.432563,155.755426" id="Fill-71" fill="#464E7E"></path>
                        <path d="M122.798873,155.755426 L169.643783,182.589469 C169.643783,182.589469 165.957652,169.591605 156.890483,154.914294 L122.798873,155.755426 Z" id="Fill-73" fill="#162B48"></path>
                        <path d="M153.124134,102.22842 C153.067716,102.320001 157.065331,106.010463 157.293847,106.753439 C158.762136,111.524552 161.84284,115.578518 163.304966,125.457007 C165.517118,140.394971 162.119715,148.159593 156.982837,155.596404 L121.815968,155.988087 C121.815968,155.988087 114.48685,109.655369 119.480549,100.585606 C119.480549,100.585606 135.407477,97.6808584 138.189972,97.9344661 C138.189972,97.9344661 153.138357,109.605117 153.124134,102.22842" id="Fill-75" fill="#FFFFFF"></path>
                        <path d="M148.819303,142.427918 C148.614492,142.022146 147.769645,219.861395 147.769645,219.861395 C147.769645,219.861395 111.817665,223.396874 101.983401,209.189207 C101.983401,209.189207 115.627535,156.635116 118.086694,151.763969 C120.544905,146.892823 116.856878,118.478428 116.856878,118.478428 L131.404174,98.1822972 L148.819303,142.427918 Z" id="Fill-77" fill="#BFE3F6"></path>
                        <path d="M138.370083,93.1079827 C138.370083,93.1079827 144.311509,117.463246 148.614444,142.630523 L132.632994,114.216128 L135.911399,110.96854 L129.355064,98.3849015 L138.370083,93.1079827 Z" id="Fill-79" fill="#99D3F0"></path>
                        <path d="M152.097707,142.427918 L161.235992,219.861395 L181.435987,222.529442 L165.005564,140.601004 C165.005564,140.601004 165.95898,136.173201 165.005564,128.220251 C162.546879,107.721704 155.990545,103.865458 155.580923,103.458746 C155.170826,103.052974 152.097707,142.427918 152.097707,142.427918" id="Fill-81" fill="#BFE3F6"></path>
                        <polygon id="Fill-83" fill="#99D3F0" points="152.712094 97.9791292 152.09766 142.428106 158.858805 111.374312 155.580875 108.939209 158.653994 106.300749"></polygon>
                        <path d="M3.0204461,232.107407 L61.0299462,276.200394 C64.3861027,278.75103 69.1939547,278.124055 71.7687938,274.799446 L99.6165019,238.848205 C102.191341,235.523596 101.558417,230.761407 98.2027346,228.210302 L40.1927604,184.117315 C36.8370779,181.567148 32.0297001,182.194123 29.4543868,185.518262 L1.60667877,221.469972 C-0.968160384,224.794112 -0.335236378,229.556771 3.0204461,232.107407" id="Fill-85" fill="#F69442"></path>
                        <g id="Group-89" transform="translate(0.000000, 211.339754)">
                            <mask id="mask-4" fill="white">
                                <use xlink:href="#path-3"></use>
                            </mask>
                            <g id="Clip-88"></g>
                            <path d="M2.97417391,20.7323359 L61.0765976,64.8957694 C64.4066787,67.42715 69.1780249,66.8048718 71.7329518,63.5060931 L79.4849671,53.4984513 L9.32285208,0.16850823 L1.57083679,10.17615 C-0.984564257,13.4749288 -0.355907154,18.2009553 2.97417391,20.7323359" id="Fill-87" fill="#F47537" mask="url(#mask-4)"></path>
                        </g>
                        <path d="M51.2782229,217.442964 L61.1674827,224.960084 C65.3296099,228.123136 71.2914222,227.345405 74.4844882,223.223341 L82.0729389,213.426569 C85.2660049,209.304035 84.4813688,203.397793 80.3197157,200.234272 L70.4299818,192.718091 C66.2683286,189.5541 60.3060423,190.331831 57.1129762,194.454834 L49.5249997,204.251136 C46.3309854,208.373201 47.1165697,214.279912 51.2782229,217.442964 Z" id="Stroke-90" stroke="#F69442" stroke-width="13"></path>
                        <path d="M64.4743328,192.423437 C68.2135625,186.187975 109.330392,115.177348 109.330392,115.177348 L121.095667,128.236266 C118.529362,137.958834 83.2226323,192.462887 81.8913584,193.709322 C81.8913584,193.709322 81.6353442,200.847909 81.3926048,200.508826 C81.1489172,200.169273 76.8820138,195.687931 76.5397134,195.928859 C76.1974129,196.170256 69.972949,204.377283 68.9005339,203.600961 C67.8281189,202.82417 71.4071027,197.753895 70.870421,197.36503 C70.3342135,196.976634 67.535599,202.774858 66.4134034,202.287837 C65.2916819,201.801286 68.3837645,196.052845 67.7977765,195.954219 C67.2117884,195.856064 65.0484684,201.461733 64.2192668,201.024025 C63.3900652,200.586787 66.1891539,194.788563 65.9459404,194.44948 C65.703201,194.110398 63.5389328,199.716067 62.3679048,199.519756 C61.4889227,199.372288 63.520917,194.013651 64.4743328,192.423437" id="Fill-92" fill="#F7E2D3"></path>
                        <polygon id="Fill-94" fill="#FF9385" points="92.7555108 176.862819 107.847074 122.091539 116.153313 138.706601"></polygon>
                        <path d="M129.355254,98.3850424 C128.054797,96.9540375 118.496459,97.7763839 113.168993,104.068203 C107.842001,110.360023 75.4699533,172.263315 75.4699533,172.263315 L91.6557402,181.39648 C91.6557402,181.39648 129.725527,125.983196 132.428373,117.463386 C134.682246,110.360023 133.042807,102.444644 129.355254,98.3850424" id="Fill-96" fill="#BFE3F6"></path>
                        <line x1="216.636944" y1="2.58088107" x2="216.636944" y2="11.1049178" id="Fill-100" fill="#F69442"></line>
                        <path d="M214.503492,2.58088107 L214.503492,11.1049178 C214.503492,12.2104595 215.484406,13.2699762 216.636944,13.2183153 C217.792801,13.1671241 218.770396,12.2898293 218.770396,11.1049178 L218.770396,2.58088107 C218.770396,1.47533934 217.789008,0.41629235 216.636944,0.467483535 C215.481087,0.51867472 214.503492,1.39596952 214.503492,2.58088107" id="Fill-102" fill="#F69442"></path>
                        <path d="M233.818911,10.6703093 C231.627145,12.8292623 229.434905,14.987276 227.243139,17.146229" id="Fill-104" fill="#F69442"></path>
                        <path d="M232.310039,9.17609031 C230.118273,11.3350433 227.926507,13.493057 225.734741,15.6515404 C224.942045,16.4320885 224.887523,17.8701381 225.734741,18.6403541 C226.588596,19.4171451 227.906121,19.4735024 228.751916,18.6403541 C230.943682,16.4823404 233.135448,14.3233874 235.327214,12.1649041 C236.11991,11.3843559 236.174431,9.94677595 235.327214,9.17609031 C234.473359,8.39976895 233.155834,8.34341168 232.310039,9.17609031" id="Fill-106" fill="#F69442"></path>
                        <path d="M204.757127,16.3780795 C202.170909,14.2026889 199.584217,12.0272984 196.998,9.85190788" id="Fill-108" fill="#F69442"></path>
                        <path d="M206.265524,14.8838135 C203.679307,12.708423 201.093089,10.5330324 198.506398,8.35764189 C198.067381,7.98850179 197.591384,7.73865124 196.99781,7.73865124 C196.474877,7.73865124 195.849539,7.96877675 195.489697,8.35764189 C194.759582,9.14476506 194.580846,10.5828147 195.489697,11.3469253 C198.075914,13.5223158 200.662132,15.6972367 203.248824,17.8721576 C203.687841,18.2417673 204.163363,18.4916179 204.756937,18.4916179 C205.280344,18.4916179 205.905208,18.2610227 206.265524,17.8721576 C206.995165,17.0850344 207.174375,15.6479241 206.265524,14.8838135" id="Fill-110" fill="#F69442"></path>
                        <path d="M359.961993,67.0739308 C359.462291,64.7754936 363.211003,58.8410733 365.163822,57.4941346 C370.5112,53.8046121 377.425006,52.7375812 383.897424,53.4890114 C383.897424,53.4890114 414.236056,68.5265394 379.393945,87.5917334 C347.565216,105.008477 379.393945,87.5917334 379.393945,87.5917334" id="Fill-112" fill="#162B48"></path>
                        <path d="M398.247021,97.8190746 C398.247021,97.8190746 409.91795,45.7933326 395.105157,47.5723437 C380.291891,49.3508851 384.780673,57.3545564 384.780673,57.3545564 L390.615901,58.6888147 L396.003103,100.042369 L398.247021,97.8190746 Z" id="Fill-114" fill="#162B48"></path>
                        <path d="M383.16053,72.8188028 C383.178546,73.1292374 383.448783,73.3631201 383.761689,73.3344718 C385.067362,73.214243 388.057987,72.6746221 388.786205,76.0231831 C389.522009,79.4083763 386.401006,81.6222776 384.429697,81.902655 C383.860776,81.9839034 382.551311,82.2149682 382.201425,82.6667657 C381.123795,84.0545634 380.814681,86.909059 380.209255,90.4858669 C378.872766,98.3866862 385.766186,101.634274 385.766186,101.634274 C385.766186,101.634274 365.371336,113.056013 364.672038,103.068566 C364.672038,103.068566 365.055585,84.640679 364.952231,84.5547341 C363.217498,83.1152756 356.964588,82.9786092 359.692087,69.5627617 C362.218568,57.1350449 371.265826,57.2125361 373.58228,57.4130741 C375.536048,57.5826155 382.253576,57.4130741 383.16053,72.8188028" id="Fill-116" fill="#EEC6AE"></path>
                        <path d="M367.164715,56.774781 C367.164715,56.774781 381.162055,72.0945649 383.468553,73.2653872 C383.468553,73.2653872 390.227802,52.4812965 367.164715,56.774781" id="Fill-118" fill="#162B48"></path>
                        <path d="M369.289396,352.264248 L367.160211,367.241661 C367.160211,367.241661 363.74574,377.17416 360.574009,373.329186 C357.403226,369.484211 354.264681,367.452062 354.264681,367.452062 L353.223557,351.880549 L369.289396,352.264248 Z" id="Fill-120" fill="#F7E2D3"></path>
                        <path d="M360.990316,352.824251 L360.442256,373.195525 C360.442256,373.195525 370.477539,374.688523 366.74874,368.035078 L368.941928,353.910538 L360.990316,352.824251 Z" id="Fill-122" fill="#EEC6AE"></path>
                        <path d="M419.824135,351.113526 L424.528633,366.053838 C424.528633,366.053838 428.109513,369.16429 429.401911,369.08398 C431.753448,368.937921 432.986584,364.919178 432.986584,364.919178 L433.373449,351.113526 L419.824135,351.113526 Z" id="Fill-124" fill="#F7E2D3"></path>
                        <path d="M426.601826,347.120614 L429.892083,371.837503 C429.892083,371.837503 436.637583,373.601955 432.90831,366.94851 L433.730874,347.934976 L426.601826,347.120614 Z" id="Fill-126" fill="#EEC6AE"></path>
                        <path d="M353.219527,367.374007 L340.55678,377.541328 C339.909159,378.018016 340.371406,378.820638 341.297799,378.828152 L359.98968,378.978489 C360.439601,378.982195 360.843535,378.779309 360.993351,378.47404 L362.402851,375.610622 C362.810103,374.783109 363.621289,374.716889 363.546855,375.592775 L364.23762,378.357099 C364.20064,378.792459 368.66951,378.673639 368.70886,378.27726 C368.95397,375.819144 368.437201,367.781658 367.99202,365.543805 C367.928017,365.222568 367.596147,364.965673 367.154759,364.902271 L367.152389,364.901801 C366.756041,364.844975 366.350211,364.954402 366.107946,365.187345 C364.84589,366.396208 360.81177,370.035009 358.661725,369.298608 C357.22046,368.804542 355.354875,367.920203 354.771731,367.411578 C354.378702,367.068269 353.651906,367.055588 353.219527,367.374007" id="Fill-128" fill="#464E7E"></path>
                        <path d="M424.957741,378.978438 C423.40364,378.306847 422.18615,377.277857 422.378635,375.991033 L424.166468,365.197677 C424.188276,365.049739 424.451876,364.99573 424.581779,365.112202 L427.33488,367.583938 C428.237093,368.394074 430.684874,368.285116 431.29267,367.315771 C431.726472,366.623516 432.744366,364.391768 432.744366,364.391768 C432.836341,364.272948 433.079081,364.278114 433.160626,364.401161 L440.350832,374.922593 C441.118401,376.083083 440.691236,378.160318 439.303544,378.978438 L424.957741,378.978438 Z" id="Fill-130" fill="#464E7E"></path>
                        <path d="M395.023233,154.302911 C400.828118,164.469293 403.89697,171.915497 407.23274,184.841036 C411.100925,199.83066 452.969203,326.623241 454.794016,353.888417 C450.025514,355.026834 418.358928,354.861519 415.345546,354.695266 C405.75971,327.484098 381.508527,239.108388 377.398077,221.965916 C376.766575,219.331214 372.656125,219.909346 372.977091,222.599466 C375.310139,242.175163 387.879014,324.630072 394.144251,354.744108 C391.643371,356.005102 355.337238,355.724725 352.449019,355.365917 C349.308104,321.789666 332.63826,194.679136 357.803983,153.475868 C369.311821,151.90444 383.354674,153.958662 395.023233,154.302911" id="Fill-132" fill="#162B48"></path>
                        <path d="M382.172031,157.774801 C382.172031,157.774801 382.520021,190.259599 397.237993,187.698162" id="Stroke-134" stroke="#FFFFFF" stroke-width="0.946"></path>
                        <path d="M357.97115,158.60175 L405.350372,193.942923 C405.350372,193.942923 407.327844,174.871154 398.91114,159.217453 L357.97115,158.60175 Z" id="Fill-136" fill="#000000"></path>
                        <path d="M409.109182,215.238784 C409.109182,214.990343 409.359981,212.337324 409.359981,212.337324 L408.146758,216.150833 L409.109182,215.238784 Z" id="Fill-138" fill="#D14341"></path>
                        <path d="M368.335648,138.191026 C369.460214,135.931099 370.649732,133.446214 371.907995,130.70819 L360.650481,121.482975 C360.855767,118.674504 360.971447,116.229068 360.910762,114.729965 C360.87236,113.777997 360.255556,112.838709 360.116644,112.911974 C357.565984,114.258443 349.371159,139.158962 347.753529,142.786491 C347.248612,143.918333 345.591157,143.768517 344.665713,143.003467 L317.198707,119.1681 C316.494194,118.453302 309.802742,115.147009 302.843896,107.072891 C300.659716,110.920214 304.759736,118.441561 306.894136,121.605552 C306.894136,121.605552 335.818526,161.525283 349.391071,163.32308 C349.391071,163.32308 364.547112,159.085483 367.356631,140.133473 C368.537615,140.460815 369.328415,140.671215 369.328415,140.671215 C371.453332,138.099915 370.425009,137.735002 368.335648,138.191026" id="Fill-140" fill="#EEC6AE"></path>
                        <path d="M317.055482,119.196138 C317.055482,119.196138 310.079095,109.147637 308.874406,108.790238 C307.669716,108.432369 311.49144,115.469513 310.384889,115.539021 C310.384889,115.539021 315.682487,118.920926 317.055482,119.196138" id="Fill-142" fill="#EEC6AE"></path>
                        <path d="M364.72893,100.255352 C364.72893,100.255352 354.340916,98.8839921 351.26922,105.101138 C348.197998,111.318754 341.387546,139.099599 341.387546,139.099599 L322.424479,121.108011 L315.079242,134.33694 C315.079242,134.33694 342.055079,168.070522 349.800931,165.689427 C357.546309,163.308333 364.818061,108.731955 364.72893,100.255352" id="Fill-144" fill="#59D9E6"></path>
                        <path d="M360.805559,101.262504 C361.140748,102.067473 351.261445,125.391868 351.660637,133.285173 C352.062674,141.236714 357.545171,154.615929 357.118481,155.812112 C357.118481,155.812112 363.346263,160.679501 397.70574,155.319925 C408.268222,146.165157 398.988182,115.050779 395.440489,105.199059 C395.440489,105.199059 388.678395,101.846741 385.765996,101.634462 C385.765996,101.634462 374.356771,105.246962 360.805559,101.262504" id="Fill-146" fill="#59D9E6"></path>
                        <path d="M444.27131,208.816498 L359.616421,210.433114 C357.84613,210.466826 356.384953,208.954103 356.353662,207.053924 L355.417751,150.655798 C355.386971,148.755618 356.796472,147.187947 358.567237,147.154602 L443.221652,145.537532 C444.992417,145.504274 446.453594,147.016997 446.485359,148.916706 L447.42127,205.315303 C447.45205,207.215012 446.042075,208.782683 444.27131,208.816498" id="Fill-148" fill="#E6F4FB"></path>
                        <path d="M415.18127,175.458021 L399.246756,191.770162 C390.581623,182.62056 390.691615,167.899102 399.491866,158.890393 C408.293065,149.880744 422.451125,149.994868 431.116258,159.145409 C439.78139,168.295481 439.671399,183.016939 430.870674,192.025648 L415.18127,175.458021 Z" id="Fill-150" fill="#F69442"></path>
                        <path d="M431.228003,196.85246 C422.427752,205.861639 408.268744,205.747046 399.604085,196.596974 L415.538599,180.284833 L431.228003,196.85246 Z" id="Fill-152" fill="#464E7E"></path>
                        <path d="M376.813891,152.949961 L399.938611,152.949961 C400.8138,152.949961 401.523054,152.247374 401.523054,151.380411 L401.523054,151.30339 C401.523054,150.436427 400.8138,149.73384 399.938611,149.73384 L376.813891,149.73384 C375.939175,149.73384 375.229921,150.436427 375.229921,151.30339 L375.229921,151.380411 C375.229921,152.247374 375.939175,152.949961 376.813891,152.949961" id="Fill-154" fill="#0091DA"></path>
                        <path d="M394.875076,206.417369 L378.076278,206.417369 C377.376506,206.417369 376.809007,205.855675 376.809007,205.162011 L376.809007,205.100018 C376.809007,204.406823 377.376506,203.84419 378.076278,203.84419 L394.875076,203.84419 C395.574849,203.84419 396.142347,204.406823 396.142347,205.100018 L396.142347,205.162011 C396.142347,205.855675 395.574849,206.417369 394.875076,206.417369" id="Fill-156" fill="#0091DA"></path>
                        <path d="M406.455784,126.526997 C419.724906,199.935156 411.106235,213.875596 410.237683,214.448561 C409.150571,215.164768 402.956923,220.802374 402.204052,221.051754 C400.67413,221.556622 402.342963,214.072846 402.093587,210.130655 C402.049021,209.428068 401.879767,212.626343 401.785421,214.025412 L401.597203,217.102989 C399.745841,216.263265 399.783295,212.728725 399.494094,211.538178 C399.107228,209.941858 399.422505,208.918974 399.609775,208.532457 C400.455096,206.7882 402.066089,203.320819 402.316888,200.209428 C402.464807,198.376408 389.890717,138.758872 387.679513,129.999074 C384.675613,118.095011 388.456089,104.421798 392.686487,103.958729 C397.9362,103.385294 405.357294,120.446987 406.455784,126.526997" id="Fill-158" fill="#EEC6AE"></path>
                        <path d="M415.771145,195.983384 C415.236834,193.73426 418.092341,150.909781 408.450561,122.892705 C404.140989,110.37012 397.936437,103.385106 392.686724,103.959011 C388.456326,104.42161 384.675376,118.094823 387.679276,129.998887 C389.89048,138.758684 394.537612,177.859826 398.410538,197.83519 L415.771145,195.983384 Z" id="Fill-160" fill="#59D9E6"></path>
                        <path d="M365.190087,70.2137351 C364.582765,73.4857441 365.851931,76.4595293 368.026156,76.8559087 C370.20038,77.2518185 372.455675,74.9205062 373.063472,71.6489668 C373.671269,68.3769578 372.401628,65.4031726 370.227404,65.0072628 C368.053179,64.6104137 365.797884,66.941726 365.190087,70.2137351 Z" id="Stroke-162" stroke="#162B48" stroke-width="1.3"></path>
                        <path d="M357.380374,67.8760826 C356.829943,70.8414141 357.981059,73.5371701 359.95142,73.895978 C361.921781,74.2552556 363.966576,72.1423277 364.517007,69.1769962 C365.067912,66.2107253 363.916796,63.515439 361.946435,63.1561614 C359.975599,62.7973535 357.931279,64.9102814 357.380374,67.8760826 Z" id="Stroke-164" stroke="#162B48" stroke-width="1.3"></path>
                        <line x1="365.047478" y1="71.4460807" x2="363.980278" y2="71.1957605" id="Stroke-166" stroke="#162B48" stroke-width="1.3"></line>
                        <line x1="372.71131" y1="73.3264879" x2="385.897464" y2="72.9892835" id="Stroke-168" stroke="#162B48" stroke-width="1.3"></line>
                    </g>
                </g>
            </g>
        </g>
    </g>
</svg>