<svg width="401" height="230" viewBox="0 0 401 230" fill="none" xmlns="http://www.w3.org/2000/svg">
<g clip-path="url(#clip0_1128_1124)">
<path d="M1.11096 198.185H399.889" stroke="#D8DBDE" stroke-width="1.9964" stroke-miterlimit="10" stroke-linecap="round" stroke-linejoin="round"/>
<path d="M317.684 107.653H311.746C310.915 107.653 310.163 107.152 309.858 106.382C309.778 106.186 309.699 105.985 309.613 105.789C309.289 105.032 309.473 104.152 310.053 103.571L314.428 99.1965C315.228 98.3961 315.228 97.1007 314.428 96.3064L306.057 87.9357C305.257 87.1353 303.961 87.1353 303.167 87.9357L298.866 92.2372C298.261 92.842 297.356 92.9826 296.568 92.6465C296.446 92.5976 296.33 92.5427 296.208 92.4938C295.42 92.1699 294.888 91.4367 294.888 90.5874V84.2574C294.888 83.1271 293.971 82.2106 292.841 82.2106H281.006C279.876 82.2106 278.959 83.1271 278.959 84.2574V90.5813C278.959 91.4306 278.421 92.1699 277.639 92.4877C277.572 92.5121 277.505 92.5427 277.444 92.5671C276.662 92.897 275.757 92.7565 275.159 92.1516L270.509 87.5019C269.708 86.7015 268.413 86.7015 267.619 87.5019L259.248 95.8726C258.448 96.673 258.448 97.9684 259.248 98.7627L263.867 103.382C264.472 103.987 264.613 104.891 264.283 105.679C264.277 105.698 264.264 105.716 264.258 105.734C263.934 106.51 263.195 107.042 262.352 107.042H255.57C254.439 107.042 253.523 107.958 253.523 109.089V120.924C253.523 122.054 254.439 122.971 255.57 122.971H262.15C263.006 122.971 263.751 123.514 264.069 124.309C264.075 124.315 264.075 124.327 264.081 124.333C264.399 125.109 264.246 126.001 263.653 126.594L258.826 131.421C258.026 132.221 258.026 133.517 258.826 134.311L267.197 142.682C267.998 143.482 269.293 143.482 270.087 142.682L274.645 138.124C275.256 137.513 276.173 137.378 276.967 137.72C277.004 137.739 277.041 137.751 277.083 137.769C277.847 138.099 278.366 138.832 278.366 139.663V146.354C278.366 147.484 279.283 148.401 280.413 148.401H292.248C293.379 148.401 294.295 147.484 294.295 146.354V140.158C294.295 139.321 294.802 138.563 295.584 138.264C295.725 138.209 295.859 138.154 295.994 138.099C296.751 137.788 297.619 137.971 298.193 138.551L302.745 143.103C303.546 143.904 304.841 143.904 305.635 143.103L314.006 134.732C314.807 133.932 314.807 132.637 314.006 131.842L309.766 127.602C309.173 127.009 308.996 126.111 309.338 125.347C309.418 125.164 309.497 124.981 309.576 124.798C309.888 124.046 310.634 123.563 311.452 123.563H317.684C318.815 123.563 319.731 122.647 319.731 121.516V109.681C319.731 108.569 318.815 107.653 317.684 107.653ZM286.627 127.15C280.096 127.15 274.798 121.853 274.798 115.321C274.798 108.789 280.096 103.492 286.627 103.492C293.159 103.492 298.456 108.789 298.456 115.321C298.456 121.853 293.159 127.15 286.627 127.15Z" fill="#D8DBDE"/>
<path d="M279.729 184.853H121.271C117.092 184.853 113.701 181.462 113.701 177.283V70.8765C113.701 66.6972 117.092 63.3062 121.271 63.3062H279.729C283.908 63.3062 287.299 66.6972 287.299 70.8765V177.283C287.299 181.462 283.908 184.853 279.729 184.853Z" fill="#004077"/>
<path d="M113.762 178.193C114.214 181.945 117.404 184.853 121.271 184.853H279.729C283.603 184.853 286.786 181.945 287.238 178.193H113.762Z" fill="#E5E5E5"/>
<path d="M273.546 176.122H127.454C123.275 176.122 119.884 172.731 119.884 168.552V77.0598C119.884 72.8806 123.275 69.4895 127.454 69.4895H273.539C277.719 69.4895 281.11 72.8806 281.11 77.0598V168.552C281.116 172.731 277.725 176.122 273.546 176.122Z" fill="#1B87C6"/>
<path d="M217.84 142.168H147.196V144.533H217.84V142.168Z" fill="#63B8FA"/>
<path d="M234.301 142.168H220.376V144.533H234.301V142.168Z" fill="#63B8FA"/>
<path d="M249.845 142.168H235.92V144.533H249.845V142.168Z" fill="white"/>
<path d="M234.301 151.181H220.376V153.545H234.301V151.181Z" fill="#63B8FA"/>
<path d="M234.295 155.8H189.361V158.165H234.295V155.8Z" fill="#63B8FA"/>
<path d="M249.845 151.181H235.92V153.545H249.845V151.181Z" fill="white"/>
<path d="M234.301 146.678H163.656V149.042H234.301V146.678Z" fill="white"/>
<path d="M249.735 146.678H235.81V149.042H249.735V146.678Z" fill="#63B8FA"/>
<path d="M249.735 155.8H235.81V158.165H249.735V155.8Z" fill="#63B8FA"/>
<path d="M132.624 81.4652C134.102 81.4652 135.3 80.267 135.3 78.789C135.3 77.311 134.102 76.1128 132.624 76.1128C131.146 76.1128 129.948 77.311 129.948 78.789C129.948 80.267 131.146 81.4652 132.624 81.4652Z" fill="white"/>
<path d="M141.544 81.4652C143.022 81.4652 144.221 80.267 144.221 78.789C144.221 77.311 143.022 76.1128 141.544 76.1128C140.066 76.1128 138.868 77.311 138.868 78.789C138.868 80.267 140.066 81.4652 141.544 81.4652Z" fill="white"/>
<path d="M150.465 81.4652C151.943 81.4652 153.141 80.267 153.141 78.789C153.141 77.311 151.943 76.1128 150.465 76.1128C148.987 76.1128 147.789 77.311 147.789 78.789C147.789 80.267 148.987 81.4652 150.465 81.4652Z" fill="white"/>
<path d="M124.748 84.734H274.346" stroke="white" stroke-width="0.9732" stroke-miterlimit="10"/>
<path d="M294.747 198.106H106.253C101.902 198.106 98.0102 195.399 96.501 191.318L93.0671 182.049H307.933L304.499 191.318C302.99 195.399 299.098 198.106 294.747 198.106Z" fill="#D8DBDE"/>
<path d="M96.2505 190.646L96.501 191.318C98.0102 195.399 101.902 198.106 106.253 198.106H294.747C299.098 198.106 302.99 195.399 304.499 191.318L304.75 190.646H96.2505Z" fill="#E5E5E5"/>
<path d="M132.819 208.976C134.854 209.593 135.783 210.876 135.783 213.931V221.006C135.783 223.084 136.846 224.281 139.009 224.281H139.803V229.676H137.237C131.707 229.676 128.878 226.847 128.878 221.758V213.754C128.878 212.336 128.127 211.676 126.935 211.676H125.475V206.281H126.935C128.127 206.281 128.878 205.615 128.878 204.204V196.199C128.878 191.11 131.707 188.281 137.237 188.281H139.803V193.676H139.009C136.84 193.676 135.783 194.868 135.783 196.951V204.026C135.783 207.069 134.854 208.352 132.819 208.976Z" fill="#1B87C6"/>
<path d="M139.32 217.114C139.32 214.548 141.22 212.868 143.609 212.868C145.998 212.868 147.899 214.548 147.899 217.114C147.899 219.638 145.998 221.446 143.609 221.446C141.22 221.446 139.32 219.631 139.32 217.114ZM151.131 217.114C151.131 214.548 153.031 212.868 155.42 212.868C157.809 212.868 159.709 214.548 159.709 217.114C159.709 219.638 157.809 221.446 155.42 221.446C153.031 221.446 151.131 219.631 151.131 217.114ZM162.984 217.114C162.984 214.548 164.885 212.868 167.274 212.868C169.663 212.868 171.563 214.548 171.563 217.114C171.563 219.638 169.663 221.446 167.274 221.446C164.885 221.446 162.984 219.631 162.984 217.114Z" fill="#1B87C6"/>
<path d="M185.451 206.275V211.67H183.991C182.799 211.67 182.048 212.336 182.048 213.748V221.752C182.048 226.835 179.219 229.67 173.689 229.67H171.123V224.275H171.917C174.086 224.275 175.143 223.084 175.143 221V213.925C175.143 210.87 176.072 209.593 178.107 208.97C176.072 208.352 175.143 207.069 175.143 204.014V196.939C175.143 194.861 174.08 193.664 171.917 193.664H171.123V188.269H173.689C179.219 188.269 182.048 191.098 182.048 196.187V204.191C182.048 205.609 182.799 206.269 183.991 206.269H185.451V206.275Z" fill="#1B87C6"/>
<path d="M300.882 158H251.849V227.147H300.882V158Z" fill="white" stroke="#D8DBDE" stroke-width="2.8805" stroke-miterlimit="10"/>
<path d="M294.558 166.884H258.038V168.674H294.558V166.884Z" fill="#1B87C6"/>
<path d="M282.301 170.232H258.038V172.022H282.301V170.232Z" fill="#1B87C6"/>
<path d="M289.768 173.617H258.038V175.407H289.768V173.617Z" fill="#1B87C6"/>
<path d="M287.538 176.941H258.038V178.731H287.538V176.941Z" fill="#1B87C6"/>
<path d="M287.538 205.859H258.038V207.65H287.538V205.859Z" fill="#1B87C6"/>
<path d="M279.466 209.324H258.038V211.114H279.466V209.324Z" fill="#1B87C6"/>
<path d="M282.369 212.886H258.038V214.676H282.369V212.886Z" fill="#1B87C6"/>
<path d="M272.25 17.9208H177.037C174.355 17.9208 172.18 15.7457 172.18 13.0633V5.46857C172.18 2.78626 174.355 0.611084 177.037 0.611084H272.25C274.932 0.611084 277.108 2.78626 277.108 5.46857V13.0695C277.102 15.7457 274.926 17.9208 272.25 17.9208Z" fill="white" stroke="#D8DBDE" stroke-width="2" stroke-miterlimit="10"/>
<path d="M272.25 0.611084H246.203C243.276 0.611084 240.9 2.98789 240.9 5.9146V12.6173C240.9 15.544 243.276 17.9208 246.203 17.9208H272.25C274.932 17.9208 277.108 15.7457 277.108 13.0633V5.46857C277.101 2.78626 274.926 0.611084 272.25 0.611084Z" fill="#1B87C6"/>
<path d="M272.25 39.5136H177.037C174.355 39.5136 172.18 37.3384 172.18 34.6561V27.0552C172.18 24.3729 174.355 22.1978 177.037 22.1978H272.25C274.932 22.1978 277.108 24.3729 277.108 27.0552V34.6561C277.102 37.3384 274.926 39.5136 272.25 39.5136Z" fill="white" stroke="#D8DBDE" stroke-width="2" stroke-miterlimit="10"/>
<path d="M272.25 22.1978H246.203C243.276 22.1978 240.9 24.5746 240.9 27.5013V34.204C240.9 37.1307 243.276 39.5075 246.203 39.5075H272.25C274.932 39.5075 277.108 37.3323 277.108 34.65V27.0552C277.101 24.3729 274.926 22.1978 272.25 22.1978Z" fill="#004077"/>
<path d="M332.912 55.9269C336.627 33.5266 321.479 12.356 299.079 8.64115C276.678 4.9263 255.508 20.0739 251.793 42.4743C248.078 64.8746 263.226 86.0452 285.626 89.76C308.026 93.4749 329.197 78.3273 332.912 55.9269Z" fill="white" stroke="#D8DBDE" stroke-width="2.8805" stroke-miterlimit="10"/>
<path d="M268.456 49.9743L275.953 39.5505H283.401L276.112 49.9743L283.401 60.3491H275.953L268.456 49.9743Z" fill="#1B87C6"/>
<path d="M297.87 23.3772H305.263L287.709 73.4795H280.315L297.87 23.3772Z" fill="#1B87C6"/>
<path d="M301.377 60.3491L308.666 49.9743L301.377 39.5505H308.825L316.322 49.9743L308.825 60.3491H301.377Z" fill="#1B87C6"/>
<path d="M377.893 84.172H344.899C338.996 84.172 334.206 88.9562 334.206 94.8646V99.1416C334.206 105.044 338.996 109.834 344.899 109.834H359.489L367.102 123.478L375.479 109.834H377.893C383.801 109.834 388.585 105.044 388.585 99.1416V94.8646C388.585 88.9562 383.795 84.172 377.893 84.172Z" fill="#1B87C6"/>
<path d="M345.827 97.1375C345.827 94.5713 347.728 92.891 350.117 92.891C352.506 92.891 354.406 94.5713 354.406 97.1375C354.406 99.6609 352.506 101.469 350.117 101.469C347.734 101.469 345.827 99.6609 345.827 97.1375Z" fill="white"/>
<path d="M357.418 97.1375C357.418 94.5713 359.318 92.891 361.707 92.891C364.096 92.891 365.997 94.5713 365.997 97.1375C365.997 99.6609 364.096 101.469 361.707 101.469C359.318 101.469 357.418 99.6609 357.418 97.1375Z" fill="white"/>
<path d="M369.009 97.1375C369.009 94.5713 370.909 92.891 373.298 92.891C375.687 92.891 377.587 94.5713 377.587 97.1375C377.587 99.6609 375.687 101.469 373.298 101.469C370.909 101.469 369.009 99.6609 369.009 97.1375Z" fill="white"/>
<path d="M378.345 132.802H344.446V143.904H378.345V132.802Z" fill="#D8DBDE"/>
<path d="M378.345 136.413H344.446V143.898H378.345V136.413Z" fill="#E5E5E5"/>
<path d="M374.043 198.106H347.715L343.066 144.16H379.72L374.043 198.106Z" fill="#1B87C6"/>
<path d="M379.72 144.16H343.066L344.263 152.806H378.259L379.72 144.16Z" fill="#E5E5E5"/>
<path d="M385.011 137.837H337.774V148.939H385.011V137.837Z" fill="#004077"/>
<path d="M369.148 178.625C372.919 174.338 372.501 167.805 368.215 164.034C363.928 160.263 357.396 160.681 353.624 164.968C349.853 169.255 350.271 175.787 354.558 179.558C358.845 183.329 365.377 182.911 369.148 178.625Z" fill="white"/>
<path d="M133.406 106.156H144.19C146.536 106.156 148.296 106.712 149.469 107.83C150.642 108.948 151.223 110.537 151.223 112.596C151.223 114.716 150.587 116.372 149.31 117.563C148.033 118.755 146.09 119.354 143.475 119.354H139.925V127.144H133.412V106.156H133.406ZM139.925 115.107H141.514C142.766 115.107 143.64 114.887 144.147 114.453C144.654 114.02 144.905 113.463 144.905 112.785C144.905 112.125 144.685 111.569 144.245 111.111C143.805 110.653 142.98 110.427 141.77 110.427H139.925V115.107Z" fill="white"/>
<path d="M152.5 106.156H159.703L163.931 113.237L168.172 106.156H175.339L167.176 118.358V127.15H160.675V118.358L152.5 106.156Z" fill="white"/>
<path d="M175.956 106.156H195.673V111.337H189.056V127.15H182.567V111.337H175.95V106.156H175.956Z" fill="white"/>
<path d="M198.636 106.156H205.125V113.5H212.213V106.156H218.726V127.15H212.213V118.657H205.125V127.15H198.636V106.156Z" fill="white"/>
<path d="M222.221 116.665C222.221 113.237 223.174 110.567 225.087 108.661C226.999 106.755 229.657 105.795 233.06 105.795C236.555 105.795 239.244 106.736 241.138 108.612C243.032 110.488 243.973 113.115 243.973 116.494C243.973 118.95 243.557 120.961 242.733 122.531C241.908 124.101 240.716 125.323 239.152 126.197C237.588 127.071 235.645 127.504 233.317 127.504C230.946 127.504 228.991 127.126 227.439 126.374C225.887 125.623 224.629 124.425 223.663 122.794C222.698 121.162 222.221 119.121 222.221 116.665ZM228.71 116.696C228.71 118.816 229.101 120.337 229.889 121.266C230.677 122.195 231.747 122.653 233.103 122.653C234.496 122.653 235.578 122.201 236.341 121.29C237.105 120.38 237.49 118.755 237.49 116.409C237.49 114.435 237.093 112.987 236.293 112.077C235.492 111.166 234.417 110.708 233.048 110.708C231.741 110.708 230.69 111.172 229.895 112.095C229.101 113.017 228.71 114.557 228.71 116.696Z" fill="white"/>
<path d="M247.511 106.156H253.566L261.472 117.771V106.156H267.588V127.15H261.472L253.609 115.62V127.15H247.511V106.156Z" fill="white"/>
<path d="M121.216 160.865H88.0996C80.5293 160.865 74.3948 154.731 74.3948 147.16V129.747C74.3948 122.176 80.5293 116.042 88.0996 116.042H121.216C128.786 116.042 134.921 122.176 134.921 129.747V147.16C134.915 154.731 128.78 160.865 121.216 160.865Z" fill="white" stroke="#D8DBDE" stroke-width="2.8805" stroke-miterlimit="10"/>
<path d="M119.236 138.93L94.7839 126.075V152.097L119.236 138.93Z" fill="#1B87C6"/>
<path d="M39.6996 74.345L34.4769 73.9706L27.1424 176.285L32.365 176.66L39.6996 74.345Z" fill="#D8DBDE"/>
<path d="M114.434 8.83521H92.5477V12.0185H114.434V8.83521Z" fill="#D8DBDE"/>
<path d="M40.4291 74.0659L99.1283 4.7475L95.2912 1.8269L34.1174 74.0659H40.4291Z" fill="#D8DBDE"/>
<path d="M35.59 173.715H24.598V187.982H35.59V173.715Z" fill="#004077"/>
<path d="M35.59 180.656H24.598V187.982H35.59V180.656Z" fill="#E5E5E5"/>
<path d="M62.8224 198.106H23.7792C21.3535 198.106 19.3922 196.145 19.3922 193.719V188.996C19.3922 186.576 21.3535 184.609 23.7792 184.609H62.8224C65.2481 184.609 67.2094 186.57 67.2094 188.996V193.719C67.2094 196.145 65.2481 198.106 62.8224 198.106Z" fill="#004077"/>
<path d="M19.3922 192.228V193.725C19.3922 196.151 21.3535 198.112 23.7792 198.112H62.8224C65.2481 198.112 67.2094 196.151 67.2094 193.725V192.228H19.3922Z" fill="#E5E5E5"/>
<path d="M124.65 23.2916H103.057V5.84128C103.057 2.70072 105.605 0.152832 108.745 0.152832H118.968C122.108 0.152832 124.656 2.70072 124.656 5.84128V23.2916H124.65Z" fill="#1B87C6"/>
<path d="M124.65 14.041H103.057V23.2977H124.65V14.041Z" fill="#E5E5E5"/>
<path d="M138.923 50.2858H90.5253V40.9375C90.5253 27.5748 101.358 16.7417 114.721 16.7417C128.084 16.7417 138.917 27.5748 138.917 40.9375V50.2858H138.923Z" fill="#1B87C6"/>
<path d="M138.923 42.5748H90.5253V50.2857H138.923V42.5748Z" fill="#E5E5E5"/>
<path d="M142.491 45.08H86.957V52.9864H142.491V45.08Z" fill="#004077"/>
<path d="M37.7589 79.6079C41.5012 79.6079 44.535 76.5741 44.535 72.8318C44.535 69.0895 41.5012 66.0558 37.7589 66.0558C34.0166 66.0558 30.9829 69.0895 30.9829 72.8318C30.9829 76.5741 34.0166 79.6079 37.7589 79.6079Z" fill="#004077"/>
</g>
<defs>
<clipPath id="clip0_1128_1124">
<rect width="400" height="229.67" fill="white" transform="translate(0.5)"/>
</clipPath>
</defs>
</svg>
